<?xml version="1.0" standalone="no"?><!DOCTYPE svg PUBLIC "-//W3C//DTD SVG 1.1//EN" "http://www.w3.org/Graphics/SVG/1.1/DTD/svg11.dtd"><svg t="1649745195619" class="icon" viewBox="0 0 1024 1024" version="1.1" xmlns="http://www.w3.org/2000/svg" p-id="7190" xmlns:xlink="http://www.w3.org/1999/xlink" width="96" height="96"><defs><style type="text/css">@font-face { font-family: "feedback-iconfont"; src: url("//at.alicdn.com/t/font_1031158_u69w8yhxdu.woff2?t=1630033759944") format("woff2"), url("//at.alicdn.com/t/font_1031158_u69w8yhxdu.woff?t=1630033759944") format("woff"), url("//at.alicdn.com/t/font_1031158_u69w8yhxdu.ttf?t=1630033759944") format("truetype"); }
</style></defs><path d="M947.5 200.6c-7.3-6.9-17.1-10.6-27.2-10.3-10.1 0.3-19.6 4.7-26.5 12L388.7 741.6l-261.9-220c-10.4-9.1-24.8-11.9-37.8-7.3-13 4.6-22.5 15.9-24.8 29.5-2.3 13.6 3 27.4 13.7 36L367.4 823c6.8 5.8 15.5 8.9 24.4 8.9 10.5 0 20.6-4.3 27.8-12l529.7-565.5c6.9-7.4 10.6-17.2 10.3-27.2-0.4-10.1-4.7-19.7-12.1-26.6z m0 0" fill="#007AFF" p-id="7191"></path></svg>